--------------------------------------------
 
http://www.imdb.com/title/tt1517260/

Action | Adventure | Romance  -  5 April 2013 (Bulgaria)
5,9 Your rating:   -/10   Ratings: 5,9/10 from 11 818 users   Metascore: 35/100 
Reviews: 134 user | 173 critic | 28 from Metacritic.com
When an unseen enemy threatens mankind by taking over their bodies and erasing their memories, Melanie will risk everything to protect the people she cares most about, proving that love can conquer all in a dangerous new world.

SUBTiTLES.......: Bulgarian

Screens: 
http://imgsure.com/?p=831229 
http://imgsure.com/?p=783006

Format                           : Matroska
Format version                   : Version 2
File size                        : 2.70 GiB
Duration                         : 2h 10mn
Overall bit rate                 : 2 959 Kbps
Encoded date                     : UTC 2013-04-18 16:44:43
Writing application              : mkvmerge v6.1.0 ('Old Devil' built on Mar  2 2013 14:32:37
Writing library                  : libebml v1.3.0 + libmatroska v1.4.0

Video
ID                               : 1
Format                           : AVC
Format/Info                      : Advanced Video Codec
Format profile                   : High@L4.1
Format settings, CABAC           : Yes
Format settings, ReFrames        : 4 frames
Codec ID                         : V_MPEG4/ISO/AVC
Duration                         : 2h 10mn
Bit rate                         : 2 750 Kbps
Width                            : 1 280 pixels
Height                           : 528 pixels
Display aspect ratio             : 2.40:1
Frame rate                       : 29.970 fps
Color space                      : YUV
Chroma subsampling               : 4:2:0
Bit depth                        : 8 bits
Scan type                        : Progressive
Bits/(Pixel*Frame)               : 0.136
Stream size                      : 2.47 GiB (92%)
Writing library                  : x264 core 125 r2200bm 999b753


Audio
ID                               : 2
Format                           : AC-3
Format/Info                      : Audio Coding 3
Mode extension                   : CM (complete main)
Codec ID                         : A_AC3
Duration                         : 2h 10mn
Bit rate mode                    : Constant
Bit rate                         : 192 Kbps
Channel(s)                       : 2 channels
Channel positions                : Front: L R
Sampling rate                    : 48.0 KHz
Bit depth                        : 16 bits
Compression mode                 : Lossy
Stream size                      : 179 MiB (6%)
Language                         : English

--------------------------------------------

More at   
http://publichash.com/

--------------------------------------------	